<svg xmlns="http://www.w3.org/2000/svg" viewBox="0 0 947.297 189.776">
  <defs>
    <style>
      .cls-1 {
        fill: #042ed2;
      }

      .cls-2 {
        fill: #051e6b;
      }

      .cls-3 {
        fill: #bdd8fc;
      }
    </style>
  </defs>
  <g id="Carbon_Logo" data-name="Carbon Logo" transform="translate(0 0.018)">
    <g id="Capa_1" data-name="Capa 1" transform="translate(0 -0.018)">
      <path id="Path_1" data-name="Path 1" class="cls-1" d="M157.859,59.334a24.588,24.588,0,0,1-12.027,7.275h-.339a24.782,24.782,0,0,1-22.6-5.723A43.647,43.647,0,0,0,93.26,49.344a42.726,42.726,0,0,0-11.785,1.649h-.291a44.164,44.164,0,0,0-31.96,42.532A24.685,24.685,0,0,0,0,92.8,93.551,93.551,0,0,1,61.786,5.5l1.649-.582a93.454,93.454,0,0,1,92.872,19.4,24.637,24.637,0,0,1,1.552,35.015Z" transform="translate(0 0.018)"/>
      <path id="Path_2" data-name="Path 2" class="cls-2" d="M49.322,38.264A24.685,24.685,0,0,1,0,38.894V37.633a24.685,24.685,0,0,1,49.322.63Z" transform="translate(0 55.182)"/>
      <path id="Path_3" data-name="Path 3" class="cls-3" d="M156.307,88.165A93.357,93.357,0,0,1,0,19.88a24.685,24.685,0,0,0,49.322-.63,43.987,43.987,0,0,0,73.667,32.736A24.683,24.683,0,1,1,156.31,88.41Z" transform="translate(0 74.196)"/>
      <path id="Path_4" data-name="Path 4" class="cls-2" d="M86.3,143.793a60.913,60.913,0,0,1-35.936-30.359,73.57,73.57,0,0,1-8.2-34.87,73.328,73.328,0,0,1,8.2-34.724,61.106,61.106,0,0,1,27.4-26.867A57.906,57.906,0,0,1,103.9,11.3a51.747,51.747,0,0,1,20.854,4.316,43.259,43.259,0,0,1,15.762,12.124V18.864a4.268,4.268,0,0,1,4.268-4.171h36.276a4.268,4.268,0,0,1,4.268,4.268V138.992a4.219,4.219,0,0,1-4.268,4.219H144.738a4.219,4.219,0,0,1-4.219-4.219v-9.021q-15.762,18.574-45.539,15.713a40.689,40.689,0,0,1-8.681-1.891Zm45.878-38.119A26.043,26.043,0,0,0,142.8,95.053a33.172,33.172,0,0,0,3.88-16.489,33.269,33.269,0,0,0-3.88-16.586,26.043,26.043,0,0,0-10.621-10.621,31.475,31.475,0,0,0-15.131-3.686,32.736,32.736,0,0,0-15.519,3.686A26,26,0,0,0,90.809,61.978a33.318,33.318,0,0,0-3.928,16.586A32.978,32.978,0,0,0,90.809,95.1a26.14,26.14,0,0,0,10.718,10.572,32.736,32.736,0,0,0,15.519,3.637,31.426,31.426,0,0,0,15.131-3.637Z" transform="translate(162.298 43.544)"/>
      <path id="Path_5" data-name="Path 5" class="cls-2" d="M131.269,27.316a57.325,57.325,0,0,1,14.549-10.33,55.724,55.724,0,0,1,19.4-5.286V54.232q-21,0-31.184,7.808A28.419,28.419,0,0,0,123.9,86.289v48.74a6.6,6.6,0,0,1-6.644,6.6H85.876a6.6,6.6,0,0,1-6.6-6.6V19.557a6.644,6.644,0,0,1,6.6-6.4h29.1a6.693,6.693,0,0,1,6.6,6.4V39.683a54.705,54.705,0,0,1,9.7-12.367Z" transform="translate(305.206 45.131)"/>
      <path id="Path_6" data-name="Path 6" class="cls-2" d="M146.725,173.426V179.1a7.566,7.566,0,0,1-7.614,7.566H109.334a7.566,7.566,0,0,1-7.614-7.566V7.566A7.566,7.566,0,0,1,109.237,0H138.82a7.566,7.566,0,0,1,7.566,7.566V71A43.114,43.114,0,0,1,162.1,58.876,51.989,51.989,0,0,1,183,54.559a57.663,57.663,0,0,1,26.091,5.674A61.107,61.107,0,0,1,236.736,87.3a72.746,72.746,0,0,1,8.2,34.918,72.988,72.988,0,0,1-8.2,34.87,60.768,60.768,0,0,1-26.673,26.528,57.47,57.47,0,0,1-26.916,6.062,46.412,46.412,0,0,1-36.421-16.247Zm38.8-24.249a26.576,26.576,0,0,0,10.766-10.572,33.513,33.513,0,0,0,3.88-16.538,33.948,33.948,0,0,0-3.88-16.586,26.383,26.383,0,0,0-10.767-10.669A32.735,32.735,0,0,0,170,91.126a31.475,31.475,0,0,0-15.131,3.686,26.625,26.625,0,0,0-10.621,10.621,33.949,33.949,0,0,0-3.88,16.586,33.949,33.949,0,0,0,3.88,16.489,26.625,26.625,0,0,0,10.621,10.621A31.426,31.426,0,0,0,170,152.766a32.736,32.736,0,0,0,15.519-3.637Z" transform="translate(391.594 0.089)"/>
      <path id="Path_7" data-name="Path 7" class="cls-2" d="M169.7,136.775a63.289,63.289,0,0,1-25.849-23.57,65.374,65.374,0,0,1-9.36-34.87,65.278,65.278,0,0,1,9.36-34.966A63.629,63.629,0,0,1,169.7,19.8a86.762,86.762,0,0,1,74.443,0,63.773,63.773,0,0,1,25.9,23.57,65.229,65.229,0,0,1,9.311,34.773,65.327,65.327,0,0,1-9.311,34.87,63.435,63.435,0,0,1-25.9,23.57,86.762,86.762,0,0,1-74.443,0Zm52.232-32.3A27.4,27.4,0,0,0,232.842,94.1a30.311,30.311,0,0,0,3.977-15.762,30.214,30.214,0,0,0-3.977-15.665A27.45,27.45,0,0,0,221.93,52.148a33.608,33.608,0,0,0-30.408,0,25.994,25.994,0,0,0-10.864,10.281,31.669,31.669,0,0,0-3.88,15.907,31.474,31.474,0,0,0,3.88,15.859,26.14,26.14,0,0,0,10.718,10.33,33.948,33.948,0,0,0,30.408,0Z" transform="translate(517.702 44.014)"/>
      <path id="Path_8" data-name="Path 8" class="cls-2" d="M283.834,23.061c6.693,7.711,10.087,18.671,10.087,32.93v77.6a9.263,9.263,0,0,1-9.263,9.263H257.84a9.263,9.263,0,0,1-9.166-9.457V65.5a25.993,25.993,0,0,0-1.843-10.96,9.991,9.991,0,0,0-4.85-5.092,22.406,22.406,0,0,0-8.245-1.309,17.314,17.314,0,0,0-14.161,5.577,24.249,24.249,0,0,0-4.85,16.78v64.938a7.226,7.226,0,0,1-7.226,7.226h-30.5a7.177,7.177,0,0,1-7.275-7.226V21.17a7.226,7.226,0,0,1,7.226-6.984h30.5a7.226,7.226,0,0,1,7.275,6.984V32.081A50.728,50.728,0,0,1,231.651,17a46.218,46.218,0,0,1,22.454-5.48,37.585,37.585,0,0,1,29.729,11.542Z" transform="translate(653.376 44.1)"/>
    </g>
  </g>
</svg>
